<svg xmlns="http://www.w3.org/2000/svg" viewBox="0 0 200 200" fill="none">
  <circle cx="100" cy="100" r="82" stroke="#1B2A4A" stroke-width="10"/>
  <circle cx="100" cy="100" r="58" stroke="#FF6B35" stroke-width="6"/>
  <circle cx="100" cy="100" r="18" fill="#1B2A4A"/>
  <line x1="100" y1="18" x2="100" y2="42" stroke="#1B2A4A" stroke-width="8" stroke-linecap="round"/>
  <line x1="100" y1="158" x2="100" y2="182" stroke="#1B2A4A" stroke-width="8" stroke-linecap="round"/>
  <line x1="18" y1="100" x2="42" y2="100" stroke="#1B2A4A" stroke-width="8" stroke-linecap="round"/>
  <line x1="158" y1="100" x2="182" y2="100" stroke="#1B2A4A" stroke-width="8" stroke-linecap="round"/>
  <line x1="36" y1="36" x2="53" y2="53" stroke="#1B2A4A" stroke-width="8" stroke-linecap="round"/>
  <line x1="147" y1="147" x2="164" y2="164" stroke="#1B2A4A" stroke-width="8" stroke-linecap="round"/>
  <line x1="164" y1="36" x2="147" y2="53" stroke="#1B2A4A" stroke-width="8" stroke-linecap="round"/>
  <line x1="53" y1="147" x2="36" y2="164" stroke="#1B2A4A" stroke-width="8" stroke-linecap="round"/>
  <polygon points="100,82 105,95 120,95 108,104 113,118 100,109 87,118 92,104 80,95 95,95" fill="#FF6B35"/>
</svg>
