<svg xmlns="http://www.w3.org/2000/svg" viewBox="0 0 200 200" fill="none">
  <polygon points="100,10 190,80 155,185 45,185 10,80" fill="#1B2A4A"/>
  <polygon points="100,24 178,86 147,178 53,178 22,86" fill="#FF6B35"/>
  <polygon points="100,40 163,92 138,168 62,168 37,92" fill="#1B2A4A"/>
  <path d="M55 125 L65 98 Q68 88 78 88 L122 88 Q132 88 135 98 L145 125 Z" fill="white"/>
  <rect x="55" y="125" width="90" height="25" rx="5" fill="white" opacity="0.95"/>
  <circle cx="70" cy="155" r="11" fill="#FF6B35" stroke="white" stroke-width="2"/>
  <circle cx="70" cy="155" r="4" fill="white"/>
  <circle cx="130" cy="155" r="11" fill="#FF6B35" stroke="white" stroke-width="2"/>
  <circle cx="130" cy="155" r="4" fill="white"/>
  <rect x="76" y="92" width="20" height="20" rx="4" fill="#7EC8E3"/>
  <rect x="104" y="92" width="20" height="20" rx="4" fill="#7EC8E3"/>
  <polygon points="100,50 104,62 116,62 107,70 110,82 100,74 90,82 93,70 84,62 96,62" fill="#FF6B35"/>
</svg>
